<?xml version="1.0" standalone="no"?><!DOCTYPE svg PUBLIC "-//W3C//DTD SVG 1.1//EN" "http://www.w3.org/Graphics/SVG/1.1/DTD/svg11.dtd"><svg t="1602656192673" class="icon" viewBox="0 0 1024 1024" version="1.1" xmlns="http://www.w3.org/2000/svg" p-id="4837" xmlns:xlink="http://www.w3.org/1999/xlink" width="200" height="200"><defs><style type="text/css"></style></defs><path d="M357.86384612 855.17290155c-21.41833671 0-38.79504669-17.35387591-38.79504668-38.79504669v-247.52107633c0-21.41833671 17.35387591-38.79504669 38.79504668-38.79504669 21.41833671 0 38.79504669 17.35387591 38.79504668 38.79504669v247.5439104c0 21.41833671-17.37670997 38.77221262-38.79504668 38.77221262z" fill="#F4DA6E" p-id="4838"></path><path d="M357.86384612 872.09293027c-30.71179435 0-55.71507655-24.98044814-55.71507655-55.69224134V568.85677853c0-30.71179435 24.98044814-55.69224249 55.71507655-55.6922425 30.71179435 0 55.71507655 24.98044814 55.71507541 55.6922425v247.5439104c0 30.71179435-25.00328221 55.69224249-55.71507541 55.69224134z m0-325.1111697c-12.05637689 0-21.87501795 9.79580587-21.87501796 21.87501796v247.5439104c0 12.05637689 9.79580587 21.87501795 21.87501796 21.87501681 12.05637689 0 21.87501795-9.79580587 21.87501682-21.87501681V568.85677853c0-12.05637689-9.81863993-21.87501795-21.87501682-21.87501796z" fill="#173751" p-id="4839"></path><path d="M271.64248178 635.12118499a263.87482055 263.87482055 0 0 1-37.74467982-136.2507628c0-146.36624555 119.07955826-265.44580381 265.44580266-265.44580267s265.44580381 119.07955826 265.44580381 265.44580267c0 49.77822379-13.79176448 96.3825152-37.74468096 136.2507628h72.24692622c18.90659101-41.53513301 29.50158905-87.63707506 29.50159019-136.2507628 0-181.96452579-147.50794752-329.47247218-329.47247332-329.47247218s-329.47247218 147.50794752-329.47247218 329.47247218c0 48.61368775 10.61783211 94.71562979 29.50158906 136.2507628h72.29259434z" fill="#71DAFF" p-id="4840"></path><path d="M799.29165369 652.04121373h-72.24692622c-6.0966912 0-11.71386595-3.28810269-14.72796103-8.58560171a16.89719467 16.89719467 0 0 1 0.20550656-17.03419904 247.70374883 247.70374883 0 0 0 35.3242715-127.52815673c0-137.02711979-111.49865415-248.52577394-248.52577394-248.52577394s-248.52577394 111.47582009-248.52577394 248.52577394c0 44.96024007 12.21621533 89.05278578 35.32427151 127.52815673a16.92687929 16.92687929 0 0 1-14.52245447 25.61980075h-72.24692622a16.89719467 16.89719467 0 0 1-15.3901477-9.90997618c-20.59631047-45.23424882-31.03147122-93.43692231-31.03147122-143.26081536 0-191.00680761 155.38569443-346.36966798 346.36966798-346.36966798s346.39250205 155.38569443 346.39250204 346.36966798c0 49.80105785-10.43515961 97.98089842-31.03147008 143.26081536a16.82869362 16.82869362 0 0 1-15.36731477 9.90997618z m-44.11537977-33.8400586h33.01803236c15.73265863-37.92735346 23.67890773-78.02394055 23.67890773-119.33073294 0-172.32855723-140.20105216-312.55244345-312.55244345-312.55244345-172.32855723 0-312.52960939 140.20105216-312.52960938 312.55244345 0 41.32962645 7.96908317 81.40337949 23.67890773 119.33073294h33.01803235a281.47758763 281.47758763 0 0 1-26.51032917-119.33073294c0-155.70537017 126.66046237-282.36583253 282.36583253-282.36583254s282.36583253 126.66046237 282.36583254 282.36583254c-0.02283406 41.37529458-9.1336192 82.11123541-26.53316324 119.33073294z" fill="#173751" p-id="4841"></path><path d="M319.06879944 811.17169209l-139.67586987-139.69870393c-17.62788466-17.12553529-27.67486521-42.01464718-24.43243065-69.18716416 4.45263872-37.15099534 34.47941234-67.17776782 71.63040768-71.60757362 27.17251698-3.24243456 52.06162887 6.80454599 69.1643301 24.43243179l23.29072867 26.32765668v229.73335324z" fill="#D7F7FF" p-id="4842"></path><path d="M319.06879944 828.09172082c-4.40697173 0-8.72260608-1.71255353-11.96504178-4.95498809l-139.65303467-139.69870393c-22.26319587-21.60100921-32.99519829-51.97029262-29.27324957-83.16160114 5.34316715-44.73189945 41.69497145-81.06086855 86.4268709-86.40403569 31.16847445-3.67628174 61.53775787 7.01005255 83.32143958 29.43308686l23.81591096 26.89850823c2.74008519 3.08259613 4.2471333 7.07855474 4.2471333 11.21151772v229.75618731c0 6.85021411-4.13296299 13.0154075-10.4351596 15.64132238-2.10073259 0.86769437-4.29280142 1.27870635-6.48486912 1.27870635z m-82.38524416-281.10996025c-2.67158301 0-5.36600121 0.15983843-8.06041828 0.4795153-29.4102528 3.51644331-53.31750115 27.42369166-56.85677852 56.83394447-2.46607758 20.61914453 4.61247715 40.66743865 19.40894037 55.03005468l110.95063665 110.99630592v-182.48970923l-19.04359537-21.53250702c-11.9878747-12.3532197-28.70239801-19.31760413-46.39878485-19.31760412z" fill="#173751" p-id="4843"></path><path d="M648.72394411 855.17290155c21.41833671 0 38.79504669-17.35387591 38.79504669-38.79504669v-247.52107633c0-21.41833671-17.35387591-38.79504669-38.79504669-38.79504669-21.41833671 0-38.79504669 17.35387591-38.79504669 38.79504669v247.5439104c0 21.41833671 17.35387591 38.77221262 38.79504669 38.77221262z" fill="#F4DA6E" p-id="4844"></path><path d="M648.72394411 872.09293027c-30.71179435 0-55.71507655-24.98044814-55.71507655-55.69224134V568.85677853c0-30.71179435 24.98044814-55.69224249 55.71507655-55.6922425 30.71179435 0 55.71507655 24.98044814 55.71507655 55.6922425v247.5439104c-0.02283406 30.71179435-25.00328221 55.69224249-55.71507655 55.69224134z m0-325.1111697c-12.05637689 0-21.87501795 9.79580587-21.87501795 21.87501796v247.5439104c0 12.05637689 9.79580587 21.87501795 21.87501795 21.87501681 12.05637689 0 21.87501795-9.79580587 21.87501795-21.87501681V568.85677853c-0.02283406-12.05637689-9.81863993-21.87501795-21.87501795-21.87501796z" fill="#173751" p-id="4845"></path><path d="M687.49615673 811.17169209l139.67586987-139.69870393c17.62788466-17.12553529 27.67486521-42.01464718 24.43243065-69.18716416-4.45263872-37.15099534-34.47941234-67.17776782-71.63040768-71.60757362-27.17251698-3.24243456-52.06162887 6.80454599-69.1643301 24.43243179l-23.29072867 26.32765668v229.73335324z" fill="#D7F7FF" p-id="4846"></path><path d="M687.49615673 828.09172082c-2.19206883 0-4.38413767-0.41101312-6.48486912-1.27870635a16.92002873 16.92002873 0 0 1-10.43515961-15.64132238V581.41550478c0-4.13296299 1.50704697-8.1060864 4.24713216-11.21151772l23.29072868-26.32765668c22.308864-22.99388587 52.63247929-33.72588829 83.846623-30.02677248 44.73189945 5.34316715 81.06086855 41.69497145 86.4040357 86.4040357 3.74478393 31.16847445-6.98721849 61.56059193-29.43308686 83.34427363l-139.49319737 139.51603144a16.68712221 16.68712221 0 0 1-11.94220658 4.97782215z m16.92002987-240.25984911v182.48970923l110.79079822-110.81363342c14.97913571-14.54528853 22.05769045-34.59358265 19.59161287-55.21272718-3.51644331-29.4102528-27.42369166-53.31750115-56.83394446-56.83394447-20.64197859-2.46607758-40.66743865 4.61247715-55.03005469 19.40894038l-18.51841194 20.96165546z" fill="#173751" p-id="4847"></path><path d="M616.48226873 334.32827563c-3.17393237 0-6.37069881-0.89052729-9.22495545-2.76291926-32.15033913-20.98448953-69.46117291-32.08183694-107.93654272-32.08183694s-75.78620359 11.09734741-107.91370866 32.08183694c-7.80924473 5.11482653-18.31290653 2.92275769-23.42773304-4.9093211-5.11482653-7.83207879-2.89992363-18.31290653 4.90931996-23.42773191 37.65334471-24.59226909 81.35771136-37.60767659 126.43212174-37.60767659 45.05157632 0 88.77877703 12.99257344 126.43212174 37.60767659a16.91774635 16.91774635 0 0 1 4.90931997 23.42773191c-3.2196005 4.97782215-8.63126983 7.67224035-14.17994354 7.67224036z" fill="#173751" p-id="4848"></path></svg>